<?xml version="1.0" encoding="iso-8859-1"?>
<!-- Generator: Adobe Illustrator 19.0.0, SVG Export Plug-In . SVG Version: 6.00 Build 0)  -->
<svg version="1.1" id="Layer_1" xmlns="http://www.w3.org/2000/svg" xmlns:xlink="http://www.w3.org/1999/xlink" x="0px" y="0px"
	 viewBox="0 0 512.002 512.002" style="enable-background:new 0 0 512.002 512.002;" xml:space="preserve">
<g transform="translate(0 -1)">
	<g>
		<path style="fill:#ECF0F1;" d="M136.535,265.538c-1.041,0-2.099-0.188-3.123-0.597c-4.386-1.724-6.545-6.673-4.821-11.059
			l70.34-178.97c1.724-4.395,6.707-6.537,11.068-4.821c4.386,1.724,6.545,6.673,4.821,11.059l-70.34,178.97
			C143.157,263.481,139.931,265.538,136.535,265.538"/>
		<path style="fill:#ECF0F1;" d="M206.877,444.508c-3.396,0-6.613-2.057-7.945-5.419l-70.34-178.97
			c-1.724-4.386,0.435-9.335,4.821-11.059c4.369-1.724,9.327,0.427,11.068,4.821l70.34,178.97c1.724,4.386-0.435,9.335-4.821,11.059
			C208.976,444.32,207.918,444.508,206.877,444.508"/>
	</g>
	<path style="fill:#805333;" d="M282.577,101.242c-15.727-13.781-48.137-43.674-48.299-43.878
		c-2.722-3.575-6.519-6.758,2.389-22.494c4.13-7.313,2.159-16.606-4.489-21.734c-8.098-6.238-20.062-4.113-25.062,4.796
		c-20.036,35.678-7.535,51.439,0.051,60.169c0,0,36.548,34.475,52.915,48.811c61.636,54.007,95.514,86.281,75.025,121.515
		l-4.983,8.576l4.983,8.576c20.488,35.234-13.389,67.507-75.025,121.515c-16.367,14.336-52.915,48.811-52.915,48.811
		c-7.586,8.73-20.087,24.491-0.051,60.169c5.001,8.909,16.964,11.034,25.062,4.796c6.647-5.137,8.619-14.421,4.489-21.734
		c-8.909-15.744-5.111-18.927-2.389-22.494c0.162-0.205,32.572-30.097,48.299-43.878c57.66-50.517,112.256-98.364,86.468-155.759
		C394.833,199.606,340.237,151.759,282.577,101.242"/>
	<path style="fill:#38454F;" d="M452.268,265.533H76.802c-4.719,0-8.533-3.823-8.533-8.533c0-4.71,3.814-8.533,8.533-8.533h375.467
		c4.719,0,8.533,3.823,8.533,8.533C460.802,261.71,456.987,265.533,452.268,265.533"/>
	<path style="fill:#ECF0F1;" d="M452.268,291.133c-1.562,0-3.115-0.427-4.48-1.271c-2.517-1.562-4.053-4.301-4.053-7.262v-51.2
		c0-2.961,1.536-5.7,4.053-7.262c2.509-1.545,5.649-1.681,8.294-0.375l51.2,25.6c2.893,1.451,4.719,4.403,4.719,7.637
		s-1.826,6.187-4.719,7.637l-51.2,25.6C454.88,290.835,453.574,291.133,452.268,291.133"/>
	<path style="fill:#E64C3C;" d="M51.202,291.133H8.535c-3.447,0-6.571-2.082-7.885-5.265c-1.323-3.191-0.589-6.861,1.852-9.301
		L22.069,257L2.502,237.433c-2.441-2.441-3.174-6.11-1.852-9.301c1.314-3.183,4.437-5.265,7.885-5.265h42.667
		c2.27,0,4.437,0.896,6.033,2.5l25.6,25.6c3.337,3.337,3.337,8.73,0,12.066l-25.6,25.6
		C55.639,290.237,53.471,291.133,51.202,291.133"/>
</g>
<g>
</g>
<g>
</g>
<g>
</g>
<g>
</g>
<g>
</g>
<g>
</g>
<g>
</g>
<g>
</g>
<g>
</g>
<g>
</g>
<g>
</g>
<g>
</g>
<g>
</g>
<g>
</g>
<g>
</g>
</svg>
